<?xml version="1.0" encoding="UTF-8" standalone="no"?>
<!DOCTYPE svg PUBLIC "-//W3C//DTD SVG 20010904//EN" "http://www.w3.org/TR/2001/REC-SVG-20010904/DTD/svg10.dtd">
<svg version="1.0" xmlns="http://www.w3.org/2000/svg" width="554.000000pt" height="195.000000pt" viewBox="0 0 554.000000 195.000000" preserveAspectRatio="xMidYMid meet">

<g transform="translate(0.000000,195.000000) scale(0.100000,-0.100000)" fill="#000000" stroke="none">
<path d="M787 1669 c-123 -29 -201 -122 -223 -266 l-7 -43 -56 0 c-31 0 -62 -4 -69 -9 -11 -6 -42 -154 -42 -198 0 -9 20 -13 66 -13 l66 0 -6 -27 c-3 -16 -22 -130 -41 -256 -46 -288 -66 -346 -149 -426 -20 -19 -36 -39 -36 -44 0 -11 94 -139 114 -156 20 -17 65 8 133 71 105 100 137 190 193 535 22 136 43 260 46 276 l6 27 104 0 c57 0 104 -2 104 -4 0 -2 -20 -129 -45 -282 -25 -154 -45 -287 -45 -296 0 -16 13 -18 125 -18 121 0 125 1 130 23 3 12 32 193 65 401 47 297 57 381 48 388 -7 4 -111 8 -232 8 l-219 0 6 36 c3 20 11 42 18 50 22 26 82 35 164 23 43 -6 81 -7 86 -2 9 9 34 181 28 188 -21 21 -259 31 -332 14z"/>
<path d="M2272 1369 c-93 -9 -173 -47 -212 -101 -39 -54 -55 -134 -40 -198 18 -75 61 -116 200 -190 128 -68 156 -94 146 -133 -16 -67 -166 -59 -166 8 0 53 -4 55 -121 55 l-109 0 -11 -27 c-14 -37 -4 -117 19 -156 44 -76 121 -102 297 -101 139 1 184 11 257 59 85 56 123 200 80 298 -24 55 -62 84 -212 162 -117 61 -139 84 -116 120 17 26 58 36 101 24 27 -8 36 -17 43 -42 l8 -32 115 0 114 0 3 48 c10 153 -139 230 -396 206z"/>
<path d="M4124 1369 c-61 -8 -131 -38 -195 -84 l-49 -35 0 43 c0 24 -5 48 -12 55 -14 14 -185 17 -206 4 -7 -5 -17 -46 -23 -98 -5 -50 -32 -227 -58 -395 -27 -167 -47 -307 -44 -311 2 -5 58 -8 124 -8 115 0 120 1 128 23 4 12 25 132 46 267 21 135 43 251 49 259 18 23 108 61 144 61 39 0 72 -30 72 -65 0 -14 -18 -138 -40 -276 -22 -138 -37 -255 -34 -260 9 -15 244 -11 249 4 11 30 95 590 95 634 0 57 -32 127 -70 155 -32 23 -110 35 -176 27z"/>
<path d="M4850 1369 c-170 -16 -267 -84 -319 -225 -30 -80 -64 -288 -58 -364 11 -164 138 -260 346 -260 218 0 367 111 388 290 l6 51 -118 -3 -118 -3 -12 -34 c-22 -67 -105 -98 -178 -68 -56 24 -63 50 -43 184 24 172 53 213 152 213 75 0 114 -29 114 -85 0 -30 16 -35 119 -35 118 0 124 5 120 102 -4 62 -9 82 -32 116 -66 95 -195 138 -367 121z"/>
<path d="M1795 1349 c-22 -11 -61 -42 -87 -67 l-48 -46 0 50 c0 27 -5 55 -12 62 -14 14 -185 17 -206 4 -7 -5 -17 -46 -23 -98 -5 -49 -32 -226 -58 -394 -27 -168 -47 -308 -44 -312 2 -5 58 -8 124 -8 115 0 120 1 128 23 4 12 23 119 41 237 36 240 37 242 125 288 37 19 67 26 114 28 43 1 66 6 71 15 9 17 40 185 40 217 0 20 -4 22 -63 22 -44 0 -74 -6 -102 -21z"/>
<path d="M2761 1351 c-13 -8 -2 -71 67 -409 l83 -399 -76 -145 c-41 -80 -75 -148 -75 -151 0 -4 55 -7 123 -7 l123 0 278 545 c153 301 275 552 272 560 -7 20 -234 22 -258 3 -17 -14 -121 -241 -184 -403 l-39 -99 -8 84 c-16 178 -50 415 -61 422 -16 11 -228 9 -245 -1z"/>
</g>
</svg>